HIERARCHY
ROOT Hips
{
	OFFSET 0.00 0.00 0.00
	CHANNELS 6 Xposition Yposition Zposition Xrotation Yrotation Zrotation
	JOINT LeftUpLeg
	{
		OFFSET 3.64953 0.00000 0.00000
		CHANNELS 3 Xrotation Yrotation Zrotation
		JOINT LeftLeg
		{
			OFFSET 0.00000 -15.70580 0.00000
			CHANNELS 3 Xrotation Yrotation Zrotation
			JOINT LeftFoot
			{
				OFFSET 0.00000 -15.41867 0.00000
				CHANNELS 3 Xrotation Yrotation Zrotation
				JOINT LeftToeBase
				{
					OFFSET 0.00000 -1.53543 5.73033
					CHANNELS 3 Xrotation Yrotation Zrotation
					End Site
					{
						OFFSET 0.00000 0.00000 2.95275
					}
				}
			}
		}
	}
	JOINT RightUpLeg
	{
		OFFSET -3.64953 0.00000 0.00000
		CHANNELS 3 Xrotation Yrotation Zrotation
		JOINT RightLeg
		{
			OFFSET 0.00000 -15.70580 0.00000
			CHANNELS 3 Xrotation Yrotation Zrotation
			JOINT RightFoot
			{
				OFFSET 0.00000 -15.41867 0.00000
				CHANNELS 3 Xrotation Yrotation Zrotation
				JOINT RightToeBase
				{
					OFFSET 0.00000 -1.53543 5.73033
					CHANNELS 3 Xrotation Yrotation Zrotation
					End Site
					{
						OFFSET 0.00000 0.00000 2.95275
					}
				}
			}
		}
	}
	JOINT Spine
	{
		OFFSET 0.00000 0.03937 0.00000
		CHANNELS 3 Xrotation Yrotation Zrotation
		JOINT Spine1
		{
			OFFSET 0.00000 10.24829 0.00000
			CHANNELS 3 Xrotation Yrotation Zrotation
			JOINT Neck
			{
				OFFSET 0.00000 7.82687 0.00000
				CHANNELS 3 Xrotation Yrotation Zrotation
				JOINT Head
				{
					OFFSET 0.00000 6.90715 0.00000
					CHANNELS 3 Xrotation Yrotation Zrotation
					End Site
					{
						OFFSET 0.00000 4.52755 0.00000
					}
				}
			}
			JOINT LeftShoulder
			{
				OFFSET 0.00000 7.82687 0.00000
				CHANNELS 3 Xrotation Yrotation Zrotation
				JOINT LeftArm
				{
					OFFSET 6.71018 -0.00002 0.00000
					CHANNELS 3 Xrotation Yrotation Zrotation
					JOINT LeftForeArm
					{
						OFFSET 10.94419 -0.00004 0.00000
						CHANNELS 3 Xrotation Yrotation Zrotation
						JOINT LeftHand
						{
							OFFSET 8.52010 -0.00003 0.00000
							CHANNELS 3 Xrotation Yrotation Zrotation
							JOINT LeftHandThumb
							{
								OFFSET 0.00000 0.00000 0.00000
								CHANNELS 3 Xrotation Yrotation Zrotation
								End Site
								{
									OFFSET 0.00000 0.00000 3.93700
								}
							}
							JOINT L_Wrist_End
							{
								OFFSET 3.93700 -0.00001 0.00000
								CHANNELS 3 Xrotation Yrotation Zrotation
							}
						}
					}
				}
			}
			JOINT RightShoulder
			{
				OFFSET 0.00000 7.82687 0.00000
				CHANNELS 3 Xrotation Yrotation Zrotation
				JOINT RightArm
				{
					OFFSET -6.71018 -0.00002 0.00000
					CHANNELS 3 Xrotation Yrotation Zrotation
					JOINT RightForeArm
					{
						OFFSET -10.94419 -0.00004 0.00000
						CHANNELS 3 Xrotation Yrotation Zrotation
						JOINT RightHand
						{
							OFFSET -8.52010 -0.00003 0.00000
							CHANNELS 3 Xrotation Yrotation Zrotation
							JOINT RightHandThumb
							{
								OFFSET 0.00000 0.00000 0.00000
								CHANNELS 3 Xrotation Yrotation Zrotation
								End Site
								{
									OFFSET 0.00000 0.00000 3.93700
								}
							}
							JOINT R_Wrist_End
							{
								OFFSET -5.39369 -0.00002 0.00000
								CHANNELS 3 Xrotation Yrotation Zrotation
							}
						}
					}
				}
			}
		}
	}
}
MOTION
Frames: 11
Frame Time: 0.033332
 61.2218 32.1183 -80.4494 147.9565 -76.5145 141.4407 -31.4204 0.9468 3.3432 62.6293 -0.0000 0.0000 -23.4485 -3.0203 4.1849 7.3900 0.0000 -0.0000 -1.7551 -2.4012 6.2646 28.5247 -0.0000 0.0000 -24.5002 2.4623 -5.0573 -6.1619 0.0000 0.0000 -2.3107 4.8294 1.1791 9.8911 3.3625 1.9541 -3.7302 0.6553 -5.6556 -5.1934 3.1553 5.0118 20.8083 15.6509 -3.9666 -3.9374 -34.7529 -60.3336 -179.9970 -85.9942 -179.9968 31.3740 17.1276 -47.9917 -0.0000 0.0000 -0.0000 -0.0000 0.0000 -0.0000 12.0791 -17.9908 0.3456 -12.3032 46.1156 69.9549 -179.9982 83.5096 179.9979 -25.6613 3.9095 0.2233 -0.0000 0.0000 -0.0000 -0.0000 0.0000 -0.0000
 59.1267 32.8813 -80.7188 142.1327 -77.7898 135.8529 -30.6098 0.7297 2.0926 48.8959 -0.0000 0.0000 -22.4184 -3.9934 3.0463 6.0585 0.0000 0.0000 2.9769 -5.5808 5.2329 24.5928 -0.0000 0.0000 -15.2307 5.3006 -2.6435 -8.3659 0.0000 0.0000 -2.4620 5.0844 1.1266 9.7309 3.5509 1.6875 -4.0410 0.5182 -5.9754 -4.4303 2.6363 5.1815 20.6229 16.3378 -2.8810 -0.8382 -30.0173 -59.5992 -179.9977 -84.7828 -179.9975 26.5507 16.2348 -43.7205 -0.0000 0.0000 -0.0000 -0.0000 0.0000 -0.0000 11.3411 -18.5073 -0.6821 -14.9292 45.9793 73.7637 -179.9989 78.9035 179.9987 -25.2247 3.5210 0.4130 -0.0000 0.0000 -0.0000 -0.0000 0.0000 -0.0000
 57.0210 33.3447 -80.9781 136.4790 -78.6217 130.6963 -28.5909 1.4869 1.0187 35.1339 -0.0000 0.0000 -20.9663 -5.3959 2.5354 5.0463 0.0000 0.0000 5.7035 -6.5788 4.2172 23.7680 0.0000 -0.0000 -7.6536 6.6004 -0.0165 -8.2402 -0.0000 0.0000 -2.7889 5.1631 0.6796 9.8077 3.5843 1.4542 -4.2637 0.8261 -6.2170 -3.9964 2.2055 5.2012 20.3304 17.0275 -1.3614 0.8607 -26.0040 -60.2292 -179.9983 -82.9513 -179.9981 25.0652 16.1752 -41.0861 -0.0000 0.0000 -0.0000 -0.0000 0.0000 -0.0000 10.7431 -18.9637 -1.7450 -16.7634 45.7563 77.2395 -179.9992 75.6668 179.9989 -24.5757 3.5918 0.7060 -0.0000 0.0000 -0.0000 -0.0000 0.0000 -0.0000
 54.8669 33.4068 -81.1821 134.1795 -79.0862 129.2938 -26.1165 2.6433 -0.3347 25.3964 -0.0000 0.0000 -20.3888 -4.3594 4.6561 4.3696 -0.0000 0.0000 6.3935 -6.5214 2.3090 27.2850 0.0000 0.0000 -3.0328 7.8212 5.0248 -8.4212 -0.0000 -0.0000 -3.2901 5.2515 0.2509 10.3569 3.5058 0.5702 -4.2002 1.3177 -6.1598 -3.9447 2.2046 4.8463 19.9054 17.2792 -0.1229 2.1175 -22.5813 -61.0033 -179.9987 -80.8585 -179.9985 22.5302 17.7405 -37.2338 -0.0000 0.0000 -0.0000 -0.0000 0.0000 -0.0000 10.4201 -18.8227 -2.4368 -17.3825 45.1747 79.9532 -179.9993 73.9603 179.9990 -25.6542 5.1345 -1.4822 -0.0000 0.0000 -0.0000 -0.0000 0.0000 -0.0000
 52.7570 33.0547 -81.3920 132.6776 -79.5265 127.8741 -24.9202 2.5215 -0.8031 23.1718 -0.0000 0.0000 -20.8425 -1.8937 6.3523 4.3003 0.0000 0.0000 5.2845 -5.7111 1.1328 34.3903 -0.0000 0.0000 -0.4439 8.7072 9.0697 -5.3686 0.0000 0.0000 -3.4469 5.0972 0.2765 10.3260 3.3105 0.3993 -4.0357 1.6023 -6.5294 -3.9521 2.7209 4.5184 20.0075 17.3212 -0.2879 2.2273 -20.6414 -61.1969 -179.9989 -79.3614 -179.9986 19.9207 17.6796 -33.5157 -0.0000 0.0000 -0.0000 -0.0000 0.0000 -0.0000 10.7240 -18.8619 -2.4337 -16.8759 44.7484 80.8916 -179.9992 74.5901 179.9990 -25.3081 6.1589 -2.4130 -0.0000 0.0000 -0.0000 -0.0000 0.0000 -0.0000
 50.6116 32.2889 -81.5744 134.2102 -80.2683 129.8247 -23.6736 1.6875 -1.4026 26.7273 -0.0000 0.0000 -18.9162 -1.9104 2.5336 3.6563 0.0000 0.0000 3.8420 -5.3137 -0.6952 43.1657 -0.0000 0.0000 0.3680 8.5753 12.3297 0.8824 0.0000 -0.0000 -3.1164 4.9748 -0.0011 10.1283 3.1326 0.0997 -3.7585 1.9768 -6.6325 -3.9831 3.1562 4.2570 20.1809 17.5804 -0.6478 0.9690 -20.9752 -61.6919 -179.9989 -78.9323 -179.9987 18.8023 16.4067 -29.8313 -0.0000 0.0000 -0.0000 -0.0000 0.0000 -0.0000 11.7329 -19.1175 -1.3481 -14.9101 44.3198 79.5426 -179.9991 77.4303 179.9988 -24.1373 6.9008 -2.5630 -0.0000 0.0000 -0.0000 -0.0000 0.0000 -0.0000
 48.6197 31.2345 -81.7699 131.2469 -80.9637 127.0274 -26.9278 3.3532 -1.3693 40.3924 0.0000 0.0000 -24.0573 -4.6139 5.1078 5.4672 -0.0000 0.0000 0.7271 -5.7191 -2.2218 53.4616 -0.0000 0.0000 -2.9445 4.0785 13.1866 -0.0665 -0.0000 -0.0000 -2.7320 4.6235 -0.2909 9.4050 2.7822 0.0885 -2.8008 1.7116 -6.1170 -5.8635 3.6717 3.2208 19.6605 17.1206 -0.8082 -0.9131 -22.7420 -62.6396 -179.9989 -79.3768 -179.9986 14.6480 13.3700 -26.2722 -0.0000 0.0000 -0.0000 -0.0000 0.0000 -0.0000 12.5976 -19.6357 0.0074 -11.6156 43.1737 76.8422 -179.9984 82.3289 179.9982 -23.3367 7.5735 -2.2782 -0.0000 0.0000 -0.0000 -0.0000 0.0000 -0.0000
 46.7289 30.3467 -81.8853 117.0098 -82.6071 113.9262 -27.0652 2.9606 -3.1576 48.5950 -0.0000 0.0000 -30.2374 -5.3345 6.1057 4.3524 -0.0000 0.0000 -3.6206 -7.3151 -4.5133 63.6956 -0.0000 0.0000 -9.8445 -1.4270 8.2640 1.5780 0.0000 -0.0000 -2.2752 3.7240 -0.9163 9.9893 1.6856 -0.7236 -3.0650 0.9831 -5.2911 -7.6317 4.0883 2.6372 19.5080 15.8220 -2.1347 -5.3449 -26.4449 -62.7973 -179.9988 -79.7016 -179.9986 9.1164 11.2347 -24.7448 -0.0000 0.0000 -0.0000 -0.0000 0.0000 -0.0000 14.4234 -19.9268 2.4145 -8.4471 41.1066 73.5539 -179.9922 88.4448 179.9920 -21.3732 9.6849 -6.9948 -0.0000 0.0000 -0.0000 -0.0000 0.0000 -0.0000
 44.8087 30.0040 -82.0123 107.1978 -83.0653 104.1982 -23.8101 1.9957 -3.6974 49.8856 -0.0000 0.0000 -34.6477 -5.1834 5.9548 4.2643 0.0000 0.0000 -9.0626 -6.7850 -4.8604 70.6731 -0.0000 0.0000 -15.1895 -5.2527 1.4699 1.2530 0.0000 -0.0000 -2.3778 3.6060 -0.8774 10.4053 1.5227 -0.8453 -2.7682 0.4681 -4.9062 -8.1034 4.2023 2.3758 20.2991 14.6305 -4.1377 -11.7900 -33.8842 -62.9665 -179.9989 -79.4758 -179.9986 7.8240 9.6561 -22.9640 -0.0000 0.0000 -0.0000 -0.0000 0.0000 -0.0000 15.8844 -20.3794 3.7724 -4.0523 38.1318 70.2774 -0.0054 87.7849 0.0052 -14.5498 7.3015 -8.5195 -0.0000 0.0000 -0.0000 -0.0000 0.0000 -0.0000
 42.8246 30.2390 -82.1446 107.1686 -83.2190 104.2235 -18.3877 1.4415 -3.6982 46.8862 -0.0000 0.0000 -34.9528 -4.8679 5.7030 2.3950 -0.0000 0.0000 -14.4209 -4.5109 -4.1412 72.9470 -0.0000 0.0000 -19.3300 -5.0683 -3.3087 0.4773 0.0000 0.0000 -2.5214 3.3312 -0.7082 10.2347 1.1372 -1.2061 -1.9186 0.9209 -5.1093 -6.4768 4.8609 3.2131 19.7818 14.7229 -3.8436 -17.7034 -41.2738 -66.5053 -179.9990 -78.6534 -179.9987 7.5841 7.5974 -20.6623 -0.0000 -0.0000 0.0000 -0.0000 -0.0000 0.0000 15.7056 -21.0143 3.0431 1.7863 36.3040 67.6642 -0.0043 87.2274 0.0041 -16.5659 7.2408 -4.8056 -0.0000 -0.0000 0.0000 -0.0000 -0.0000 0.0000
 40.7371 30.8938 -82.2820 102.5071 -83.4373 99.5626 -11.5266 -0.6178 -3.7469 40.4733 -0.0000 0.0000 -31.4200 -4.3099 4.8679 -0.6216 0.0000 0.0000 -18.6618 -2.7561 -2.8577 70.0024 -0.0000 0.0000 -21.6213 -3.1852 -5.1433 0.4335 -0.0000 0.0000 -3.0429 2.2213 -0.6487 10.2002 -0.0036 -1.1308 -1.0691 2.3012 -5.2670 -4.6984 6.0409 3.5273 19.5079 14.5229 -2.7565 -23.4546 -46.4133 -71.2959 -179.9991 -76.1153 -179.9989 5.6521 6.2501 -18.5580 -0.0000 0.0000 -0.0000 -0.0000 0.0000 -0.0000 15.2723 -21.2835 1.6996 7.5685 35.6770 64.9275 -0.0104 88.8459 0.0102 -20.4124 6.4206 -3.2280 -0.0000 0.0000 -0.0000 -0.0000 0.0000 -0.0000
